<svg version="1.1" id="Layer_1" xmlns="http://www.w3.org/2000/svg" xmlns:xlink="http://www.w3.org/1999/xlink" x="0px" y="0px" viewBox="0 0 1200 1200" enable-background="new 0 0 1200 1200" xml:space="preserve">
<g>
	<path fill="none" d="M755.125,488.006c-51.463,6.679-103.472,10.118-155.89,10.118c-0.15,0-0.297,0-0.447,0&#10;&#9;&#9;c-54.275-0.02-108.11-3.714-161.349-10.892c-3.885,28.575-6.088,58.456-6.11,89.542c-0.028,41.704,3.199,80.57,8.768,116.641&#10;&#9;&#9;c52.372-6.943,105.317-10.523,158.687-10.543c0.154,0,0.304,0,0.455,0c11.48,0,22.937,0.191,34.376,0.518l-18.004-80.139&#10;&#9;&#9;c-7.343-32.685,27.142-58.861,56.648-42.998l88.221,47.427c0.395-10.118,0.601-20.418,0.594-30.906&#10;&#9;&#9;C761.053,545.951,758.914,516.327,755.125,488.006z"/>
	<path fill="none" d="M993.465,353.662c-62.962-110.83-171.298-192.643-299.57-220.018&#10;&#9;&#9;c40.765,58.801,92.667,151.251,120.693,270.341C875.037,392.203,934.847,375.449,993.465,353.662z"/>
	<path fill="none" d="M741.429,415.727c-36.61-149.188-114.353-252.05-145.189-288.447&#10;&#9;&#9;c-30.695,36.42-108.177,139.322-144.948,287.695C547.625,427.76,645.051,428.015,741.429,415.727z"/>
	<path fill="none" d="M455.08,765.524c38.541,146.181,113.184,233.834,141.096,262.68c15.874-16.436,46.777-51.748,77.348-105.379&#10;&#9;&#9;c3.239-5.682,6.53-11.709,9.839-18.004L650.24,757.388C585.138,754.436,519.868,757.149,455.08,765.524z"/>
	<path fill="none" d="M1024.584,420.617c-64.2,24.208-129.86,42.831-196.632,55.721c4.31,31.955,6.76,65.442,6.784,100.386&#10;&#9;&#9;c0.017,23.985-0.964,47.098-2.752,69.397l187.195,100.635c21.345-52.524,33.136-109.91,33.136-170.008&#10;&#9;&#9;C1052.315,521.906,1042.515,469.312,1024.584,420.617z"/>
	<path fill="none" d="M357.667,576.721c0.024-35.382,2.54-69.267,6.953-101.583c-64.743-12.835-128.437-31.018-190.744-54.514&#10;&#9;&#9;c-17.929,48.693-27.728,101.285-27.728,156.124c0,63.951,13.346,124.834,37.354,180.053&#10;&#9;&#9;c60.097-22.086,121.457-39.281,183.788-51.49C361.171,665.514,357.635,622.672,357.667,576.721z"/>
	<path fill="none" d="M218.708,822.419c61.951,95.626,158.939,166.519,272.644,194.398&#10;&#9;&#9;c-37.801-52.793-82.555-132.514-109.503-239.398C326.788,788.255,272.278,803.279,218.708,822.419z"/>
	<path fill="none" d="M497.439,135.2c-125.155,28.841-230.643,109.684-292.438,218.454c56.744,21.09,114.607,37.438,173.083,49.153&#10;&#9;&#9;C405.932,285.313,456.973,193.874,497.439,135.2z"/>
	<path fill="#2E2E3A" d="M683.364,904.821c-3.309,6.294-6.6,12.322-9.839,18.004c-30.571,53.631-61.474,88.943-77.348,105.379&#10;&#9;&#9;c-27.912-28.845-102.556-116.499-141.096-262.68c64.788-8.375,130.058-11.088,195.159-8.136l-16.625-73.998&#10;&#9;&#9;c-11.439-0.328-22.896-0.518-34.376-0.518c-0.15,0-0.301,0-0.455,0c-53.37,0.02-106.315,3.601-158.687,10.543&#10;&#9;&#9;c-5.569-36.071-8.796-74.937-8.768-116.641c0.022-31.086,2.225-60.967,6.11-89.542c53.239,7.178,107.074,10.872,161.349,10.892&#10;&#9;&#9;c0.15,0,0.297,0,0.447,0c52.418,0,104.427-3.438,155.89-10.118c3.789,28.321,5.928,57.944,5.948,88.768&#10;&#9;&#9;c0.008,10.487-0.198,20.787-0.594,30.906l71.504,38.44c1.788-22.299,2.769-45.412,2.752-69.397&#10;&#9;&#9;c-0.023-34.943-2.473-68.431-6.784-100.386c66.772-12.889,132.432-31.512,196.632-55.721&#10;&#9;&#9;c17.931,48.695,27.73,101.289,27.73,156.131c0,60.097-11.791,117.483-33.136,170.008l65.21,35.056&#10;&#9;&#9;c26.755-63.062,41.589-132.359,41.589-205.064c0-285.833-228.849-519.222-512.943-526.567c-1.928-0.187-3.867-0.196-5.8-0.079&#10;&#9;&#9;c-2.666-0.04-5.328-0.102-8.003-0.102c-4.302,0-8.59,0.06-12.867,0.163c-3.066-0.284-6.154-0.149-9.199,0.333&#10;&#9;&#9;C296.913,62.107,72.485,293.694,72.485,576.748c0,86.977,21.208,169.087,58.697,241.461c0.743,1.683,1.583,3.289,2.537,4.803&#10;&#9;&#9;c85.257,160.51,251.089,271.934,443.212,279.979c1.987,0.327,3.993,0.505,5.998,0.505c1.065,0,2.128-0.075,3.189-0.167&#10;&#9;&#9;c4.359,0.107,8.729,0.167,13.113,0.167c2.754,0,5.494-0.062,8.238-0.104c0.668,0.036,1.335,0.104,2.003,0.104&#10;&#9;&#9;c1.171,0,2.342-0.068,3.51-0.179c38.361-0.988,75.701-6.132,111.621-14.935L683.364,904.821z M993.465,353.662&#10;&#9;&#9;c-58.618,21.786-118.427,38.541-178.877,50.323c-28.026-119.091-79.928-211.54-120.693-270.341&#10;&#9;&#9;C822.167,161.019,930.503,242.832,993.465,353.662z M596.24,127.28c30.836,36.397,108.578,139.259,145.189,288.447&#10;&#9;&#9;c-96.378,12.288-193.804,12.033-290.137-0.753C488.063,266.602,565.546,163.7,596.24,127.28z M497.439,135.2&#10;&#9;&#9;c-40.466,58.674-91.508,150.113-119.355,267.607c-58.476-11.715-116.34-28.063-173.083-49.153&#10;&#9;&#9;C266.797,244.884,372.285,164.041,497.439,135.2z M146.148,576.748c0-54.839,9.799-107.43,27.728-156.124&#10;&#9;&#9;c62.306,23.496,126.001,41.679,190.744,54.514c-4.413,32.316-6.928,66.202-6.953,101.583c-0.032,45.951,3.504,88.792,9.624,128.589&#10;&#9;&#9;c-62.332,12.21-123.691,29.404-183.788,51.49C159.494,701.582,146.148,640.698,146.148,576.748z M218.708,822.419&#10;&#9;&#9;c53.57-19.14,108.079-34.164,163.14-45c26.948,106.884,71.702,186.606,109.503,239.398&#10;&#9;&#9;C377.647,988.938,280.659,918.045,218.708,822.419z" style="fill: rgb(255, 255, 255);"/>
	<g>
		<polygon fill="#2E2E3A" points="1127.515,876.526 688.567,640.555 796.003,1118.727 880.15,991.633 997.338,1150 &#10;&#9;&#9;&#9;1097.074,1076.198 980.109,918.132 &#9;&#9;" style="fill: rgb(255, 255, 255);"/>
	</g>
</g>
</svg>